<svg width="620" height="68" viewBox="0 0 620 68" fill="none" xmlns="http://www.w3.org/2000/svg">
<path d="M0.566875 66V64.08C3.07354 64.08 4.91354 63.8933 6.08688 63.52C7.26021 63.1467 8.03354 62.5333 8.40688 61.68C8.83354 60.8267 9.04688 59.52 9.04688 57.76V10.24C9.04688 8.48 8.83354 7.17333 8.40688 6.32C8.03354 5.46666 7.26021 4.85333 6.08688 4.48C4.91354 4.10666 3.07354 3.92 0.566875 3.92V2H23.6069C29.4202 2 34.7269 3.17333 39.5269 5.52C44.3802 7.86666 48.2469 11.4667 51.1269 16.32C54.0602 21.1733 55.5269 27.1733 55.5269 34.32C55.5269 41.2 54.1402 47.04 51.3669 51.84C48.6469 56.5867 44.9402 60.1333 40.2469 62.48C35.5535 64.8267 30.2735 66 24.4069 66H0.566875ZM23.4469 62.72C28.4069 62.72 32.5669 61.52 35.9269 59.12C39.3402 56.72 41.8735 53.44 43.5269 49.28C45.2335 45.0667 46.0869 40.2667 46.0869 34.88C46.0869 28.9067 45.0735 23.68 43.0469 19.2C41.0735 14.72 38.3802 11.28 34.9669 8.88C31.5535 6.48 27.7402 5.27999 23.5269 5.27999C21.7669 5.27999 20.4602 5.44 19.6069 5.76C18.5935 5.97333 18.0869 6.66666 18.0869 7.84V59.28C18.0869 60.56 18.5135 61.4667 19.3669 62C20.2202 62.48 21.5802 62.72 23.4469 62.72ZM66.9931 14.32C65.4998 14.32 64.2465 13.8667 63.2331 12.96C62.2731 12 61.7931 10.8267 61.7931 9.44C61.7931 8 62.2731 6.82666 63.2331 5.92C64.2465 4.96 65.4998 4.48 66.9931 4.48C68.4865 4.48 69.7131 4.96 70.6731 5.92C71.6331 6.82666 72.1131 8 72.1131 9.44C72.1131 10.8267 71.6331 12 70.6731 12.96C69.7131 13.8667 68.4865 14.32 66.9931 14.32ZM71.4731 57.76C71.4731 59.5733 71.6065 60.9067 71.8731 61.76C72.1398 62.6133 72.6731 63.2267 73.4731 63.6C74.2731 63.92 75.4998 64.08 77.1531 64.08V66H58.1131V64.08C59.7665 64.08 60.9931 63.92 61.7931 63.6C62.5931 63.2267 63.1265 62.6133 63.3931 61.76C63.6598 60.9067 63.7931 59.5733 63.7931 57.76V33.12C63.7931 30.9867 63.7131 29.5467 63.5531 28.8C63.3931 28.0533 62.9131 27.68 62.1131 27.68C61.5265 27.68 60.5131 27.9733 59.0731 28.56L58.3531 26.72L70.1131 22L71.4731 23.2V57.76ZM78.615 64.08C80.215 64.08 81.3883 63.92 82.135 63.6C82.8817 63.2267 83.3883 62.6133 83.655 61.76C83.9217 60.9067 84.055 59.5733 84.055 57.76V33.12C84.055 30.9333 83.975 29.4933 83.815 28.8C83.655 28.0533 83.2017 27.68 82.455 27.68C81.7617 27.68 80.695 28 79.255 28.64L78.455 26.8L84.855 24.24L90.295 22L91.815 23.2V30.56H92.055C94.0817 27.7867 96.055 25.7067 97.975 24.32C99.895 22.88 102.135 22.16 104.695 22.16C107.522 22.16 109.682 23.1733 111.175 25.2C112.722 27.1733 113.495 30.0267 113.495 33.76V57.76C113.495 59.5733 113.628 60.9067 113.895 61.76C114.162 62.6133 114.642 63.2267 115.335 63.6C116.082 63.92 117.228 64.08 118.775 64.08V66H100.855V64.08C102.295 64.08 103.335 63.92 103.975 63.6C104.668 63.2267 105.122 62.6133 105.335 61.76C105.602 60.9067 105.735 59.5733 105.735 57.76V34.24C105.735 29.92 104.162 27.76 101.015 27.76C99.415 27.76 97.8683 28.2933 96.375 29.36C94.935 30.3733 93.415 31.8933 91.815 33.92V57.76C91.815 59.5733 91.9217 60.9067 92.135 61.76C92.4017 62.6133 92.855 63.2267 93.495 63.6C94.1883 63.92 95.255 64.08 96.695 64.08V66H78.615V64.08ZM120.521 64.08C122.121 64.08 123.295 63.92 124.041 63.6C124.788 63.2267 125.295 62.6133 125.561 61.76C125.828 60.9067 125.961 59.5733 125.961 57.76V33.12C125.961 30.9333 125.881 29.4933 125.721 28.8C125.561 28.0533 125.108 27.68 124.361 27.68C123.668 27.68 122.601 28 121.161 28.64L120.361 26.8L126.761 24.24L132.201 22L133.721 23.2V30.56H133.961C135.988 27.7867 137.961 25.7067 139.881 24.32C141.801 22.88 144.041 22.16 146.601 22.16C149.428 22.16 151.588 23.1733 153.081 25.2C154.628 27.1733 155.401 30.0267 155.401 33.76V57.76C155.401 59.5733 155.535 60.9067 155.801 61.76C156.068 62.6133 156.548 63.2267 157.241 63.6C157.988 63.92 159.135 64.08 160.681 64.08V66H142.761V64.08C144.201 64.08 145.241 63.92 145.881 63.6C146.575 63.2267 147.028 62.6133 147.241 61.76C147.508 60.9067 147.641 59.5733 147.641 57.76V34.24C147.641 29.92 146.068 27.76 142.921 27.76C141.321 27.76 139.775 28.2933 138.281 29.36C136.841 30.3733 135.321 31.8933 133.721 33.92V57.76C133.721 59.5733 133.828 60.9067 134.041 61.76C134.308 62.6133 134.761 63.2267 135.401 63.6C136.095 63.92 137.161 64.08 138.601 64.08V66H120.521V64.08ZM190.936 48.88C190.136 55.12 188.456 59.76 185.896 62.8C183.389 65.7867 180.189 67.28 176.296 67.28C173.309 67.28 170.696 66.4 168.456 64.64C166.269 62.8267 164.562 60.2933 163.336 57.04C162.162 53.7333 161.576 49.8933 161.576 45.52C161.576 41.2533 162.189 37.36 163.416 33.84C164.642 30.2667 166.376 27.44 168.616 25.36C170.909 23.2267 173.602 22.16 176.696 22.16C181.176 22.16 184.589 24.0533 186.936 27.84C189.282 31.5733 190.456 36.5067 190.456 42.64H169.336V42.8C169.336 48.4 170.189 52.9067 171.896 56.32C173.602 59.68 176.082 61.36 179.336 61.36C181.416 61.36 183.309 60.4 185.016 58.48C186.776 56.56 188.109 53.36 189.016 48.88H190.936ZM176.696 25.52C172.376 25.52 169.949 30.1333 169.416 39.36H182.776C182.776 30.1333 180.749 25.52 176.696 25.52ZM216.613 22.16C218 22.16 219.066 22.5333 219.813 23.28C220.56 24.0267 220.933 25.0667 220.933 26.4C220.933 27.8933 220.533 29.12 219.733 30.08C218.986 31.04 218.08 31.52 217.013 31.52C216.32 31.52 215.76 31.4133 215.333 31.2C214.96 30.9333 214.48 30.48 213.893 29.84C213.36 29.3067 212.933 28.96 212.613 28.8C212.346 28.5867 211.973 28.48 211.493 28.48C210.533 28.48 209.546 29.1467 208.533 30.48C207.52 31.76 206.613 33.6 205.813 36V57.28C205.813 59.2 206 60.6133 206.373 61.52C206.8 62.4267 207.6 63.0667 208.773 63.44C209.946 63.8133 211.786 64 214.293 64V66H192.693V64.08C194.293 64.08 195.466 63.92 196.213 63.6C196.96 63.2267 197.466 62.6133 197.733 61.76C198 60.9067 198.133 59.5733 198.133 57.76V33.12C198.133 30.9333 198.053 29.4933 197.893 28.8C197.733 28.0533 197.28 27.68 196.533 27.68C195.84 27.68 194.773 28 193.333 28.64L192.533 26.8L198.933 24.24L204.373 22L205.813 23.2V30.88H206.053C207.333 28.48 208.906 26.4267 210.773 24.72C212.64 23.0133 214.586 22.16 216.613 22.16ZM292.176 25.52C290.47 25.52 289.163 25.92 288.256 26.72C287.403 27.52 286.656 29.12 286.016 31.52L275.856 66.72H271.056L264.096 39.52L256.736 66.72H251.696L241.216 31.52C240.47 29.12 239.643 27.52 238.736 26.72C237.883 25.92 236.603 25.52 234.896 25.52V23.6H251.696V25.52C250.523 25.52 249.696 25.6533 249.216 25.92C248.79 26.1333 248.576 26.56 248.576 27.2C248.576 27.7867 248.896 29.2267 249.536 31.52L256.336 55.2H256.656L262.496 33.36L262.016 31.6C261.376 29.1467 260.683 27.52 259.936 26.72C259.243 25.92 258.15 25.52 256.656 25.52V23.6H273.376V25.52C271.936 25.52 270.923 25.68 270.336 26C269.803 26.32 269.536 26.9333 269.536 27.84C269.536 28.5867 269.75 29.8667 270.176 31.68L275.616 55.2H275.936L282.656 31.52C282.71 31.2533 282.87 30.6667 283.136 29.76C283.403 28.8 283.536 28.08 283.536 27.6C283.536 26.8 283.216 26.2667 282.576 26C281.936 25.68 280.763 25.52 279.056 25.52V23.6H292.176V25.52ZM299.712 14.32C298.219 14.32 296.965 13.8667 295.952 12.96C294.992 12 294.512 10.8267 294.512 9.44C294.512 8 294.992 6.82666 295.952 5.92C296.965 4.96 298.219 4.48 299.712 4.48C301.205 4.48 302.432 4.96 303.392 5.92C304.352 6.82666 304.832 8 304.832 9.44C304.832 10.8267 304.352 12 303.392 12.96C302.432 13.8667 301.205 14.32 299.712 14.32ZM304.192 57.76C304.192 59.5733 304.325 60.9067 304.592 61.76C304.859 62.6133 305.392 63.2267 306.192 63.6C306.992 63.92 308.219 64.08 309.872 64.08V66H290.832V64.08C292.485 64.08 293.712 63.92 294.512 63.6C295.312 63.2267 295.845 62.6133 296.112 61.76C296.379 60.9067 296.512 59.5733 296.512 57.76V33.12C296.512 30.9867 296.432 29.5467 296.272 28.8C296.112 28.0533 295.632 27.68 294.832 27.68C294.245 27.68 293.232 27.9733 291.792 28.56L291.072 26.72L302.832 22L304.192 23.2V57.76ZM335.414 48.08C335.414 54.5867 334.64 59.4133 333.094 62.56C331.547 65.7067 328.88 67.28 325.094 67.28C321.84 67.28 319.44 66.16 317.894 63.92C316.347 61.6267 315.574 57.76 315.574 52.32V26.88H309.974V23.92C312.907 23.8667 315.254 22.8 317.014 20.72C318.774 18.64 319.867 15.7067 320.294 11.92H323.174V23.6H332.774V26.88H323.334V50.24C323.334 54.1867 323.627 57.1467 324.214 59.12C324.854 61.0933 326.054 62.08 327.814 62.08C329.627 62.08 330.96 60.9333 331.814 58.64C332.72 56.3467 333.174 52.8267 333.174 48.08H335.414ZM348.771 57.76C348.771 59.5733 348.877 60.9067 349.091 61.76C349.357 62.6133 349.837 63.2267 350.531 63.6C351.224 63.92 352.291 64.08 353.731 64.08V66H335.651V64.08C337.251 64.08 338.424 63.92 339.171 63.6C339.917 63.2267 340.424 62.6133 340.691 61.76C340.957 60.9067 341.091 59.5733 341.091 57.76L341.011 11.76C341.011 9.73333 340.957 8.4 340.851 7.76C340.744 7.12 340.371 6.8 339.731 6.8C339.144 6.8 338.024 7.22667 336.371 8.08L335.571 6.39999L341.811 3.12L347.731 0.0799952L348.771 1.2V30.56H349.011C350.984 27.7867 352.957 25.7067 354.931 24.32C356.904 22.88 359.171 22.16 361.731 22.16C364.557 22.16 366.717 23.1467 368.211 25.12C369.704 27.0933 370.451 29.9733 370.451 33.76V57.76C370.451 59.5733 370.584 60.9067 370.851 61.76C371.117 62.6133 371.597 63.2267 372.291 63.6C373.037 63.92 374.211 64.08 375.811 64.08V66H357.891V64.08C359.331 64.08 360.371 63.92 361.011 63.6C361.704 63.2267 362.157 62.6133 362.371 61.76C362.637 60.9067 362.771 59.5733 362.771 57.76V34.16C362.771 29.8933 361.197 27.76 358.051 27.76C356.451 27.76 354.904 28.2933 353.411 29.36C351.917 30.3733 350.371 31.8933 348.771 33.92V57.76ZM436.209 4.4L437.329 18.24L435.169 18.4C434.849 14.72 434.395 11.9733 433.809 10.16C433.222 8.34666 432.395 7.14666 431.329 6.56C430.262 5.92 428.715 5.6 426.689 5.6H412.769C411.542 5.6 410.609 5.92 409.969 6.56C409.329 7.2 409.009 8.13333 409.009 9.36V32.88H419.889C421.649 32.88 422.955 32.6667 423.809 32.24C424.662 31.76 425.275 30.88 425.649 29.6C426.022 28.2667 426.209 26.2133 426.209 23.44H428.129V45.44H426.209C426.209 42.6667 426.022 40.64 425.649 39.36C425.275 38.0267 424.662 37.1467 423.809 36.72C422.955 36.2933 421.649 36.08 419.889 36.08H409.009V57.76C409.009 59.52 409.222 60.8267 409.649 61.68C410.075 62.5333 410.929 63.1467 412.209 63.52C413.489 63.8933 415.489 64.08 418.209 64.08V66H391.489V64.08C393.995 64.08 395.835 63.8933 397.009 63.52C398.182 63.1467 398.955 62.5333 399.329 61.68C399.755 60.8267 399.969 59.52 399.969 57.76V10.24C399.969 8.48 399.755 7.17333 399.329 6.32C398.955 5.46666 398.182 4.85333 397.009 4.48C395.835 4.10666 393.995 3.92 391.489 3.92V2H435.969L436.209 4.4ZM458.348 22.16C459.734 22.16 460.801 22.5333 461.548 23.28C462.294 24.0267 462.668 25.0667 462.668 26.4C462.668 27.8933 462.268 29.12 461.468 30.08C460.721 31.04 459.814 31.52 458.748 31.52C458.054 31.52 457.494 31.4133 457.068 31.2C456.694 30.9333 456.214 30.48 455.628 29.84C455.094 29.3067 454.668 28.96 454.348 28.8C454.081 28.5867 453.708 28.48 453.228 28.48C452.268 28.48 451.281 29.1467 450.268 30.48C449.254 31.76 448.348 33.6 447.548 36V57.28C447.548 59.2 447.734 60.6133 448.108 61.52C448.534 62.4267 449.334 63.0667 450.508 63.44C451.681 63.8133 453.521 64 456.028 64V66H434.428V64.08C436.028 64.08 437.201 63.92 437.948 63.6C438.694 63.2267 439.201 62.6133 439.468 61.76C439.734 60.9067 439.868 59.5733 439.868 57.76V33.12C439.868 30.9333 439.788 29.4933 439.628 28.8C439.468 28.0533 439.014 27.68 438.268 27.68C437.574 27.68 436.508 28 435.068 28.64L434.268 26.8L440.668 24.24L446.108 22L447.548 23.2V30.88H447.788C449.068 28.48 450.641 26.4267 452.508 24.72C454.374 23.0133 456.321 22.16 458.348 22.16ZM472.165 14.32C470.672 14.32 469.418 13.8667 468.405 12.96C467.445 12 466.965 10.8267 466.965 9.44C466.965 8 467.445 6.82666 468.405 5.92C469.418 4.96 470.672 4.48 472.165 4.48C473.658 4.48 474.885 4.96 475.845 5.92C476.805 6.82666 477.285 8 477.285 9.44C477.285 10.8267 476.805 12 475.845 12.96C474.885 13.8667 473.658 14.32 472.165 14.32ZM476.645 57.76C476.645 59.5733 476.778 60.9067 477.045 61.76C477.312 62.6133 477.845 63.2267 478.645 63.6C479.445 63.92 480.672 64.08 482.325 64.08V66H463.285V64.08C464.938 64.08 466.165 63.92 466.965 63.6C467.765 63.2267 468.298 62.6133 468.565 61.76C468.832 60.9067 468.965 59.5733 468.965 57.76V33.12C468.965 30.9867 468.885 29.5467 468.725 28.8C468.565 28.0533 468.085 27.68 467.285 27.68C466.698 27.68 465.685 27.9733 464.245 28.56L463.525 26.72L475.285 22L476.645 23.2V57.76ZM513.154 48.88C512.354 55.12 510.674 59.76 508.114 62.8C505.608 65.7867 502.408 67.28 498.514 67.28C495.528 67.28 492.914 66.4 490.674 64.64C488.488 62.8267 486.781 60.2933 485.554 57.04C484.381 53.7333 483.794 49.8933 483.794 45.52C483.794 41.2533 484.408 37.36 485.634 33.84C486.861 30.2667 488.594 27.44 490.834 25.36C493.128 23.2267 495.821 22.16 498.914 22.16C503.394 22.16 506.808 24.0533 509.154 27.84C511.501 31.5733 512.674 36.5067 512.674 42.64H491.554V42.8C491.554 48.4 492.408 52.9067 494.114 56.32C495.821 59.68 498.301 61.36 501.554 61.36C503.634 61.36 505.528 60.4 507.234 58.48C508.994 56.56 510.328 53.36 511.234 48.88H513.154ZM498.914 25.52C494.594 25.52 492.168 30.1333 491.634 39.36H504.994C504.994 30.1333 502.968 25.52 498.914 25.52ZM514.912 64.08C516.512 64.08 517.685 63.92 518.432 63.6C519.179 63.2267 519.685 62.6133 519.952 61.76C520.219 60.9067 520.352 59.5733 520.352 57.76V33.12C520.352 30.9333 520.272 29.4933 520.112 28.8C519.952 28.0533 519.499 27.68 518.752 27.68C518.059 27.68 516.992 28 515.552 28.64L514.752 26.8L521.152 24.24L526.592 22L528.112 23.2V30.56H528.352C530.379 27.7867 532.352 25.7067 534.272 24.32C536.192 22.88 538.432 22.16 540.992 22.16C543.819 22.16 545.979 23.1733 547.472 25.2C549.019 27.1733 549.792 30.0267 549.792 33.76V57.76C549.792 59.5733 549.925 60.9067 550.192 61.76C550.459 62.6133 550.939 63.2267 551.632 63.6C552.379 63.92 553.525 64.08 555.072 64.08V66H537.152V64.08C538.592 64.08 539.632 63.92 540.272 63.6C540.965 63.2267 541.419 62.6133 541.632 61.76C541.899 60.9067 542.032 59.5733 542.032 57.76V34.24C542.032 29.92 540.459 27.76 537.312 27.76C535.712 27.76 534.165 28.2933 532.672 29.36C531.232 30.3733 529.712 31.8933 528.112 33.92V57.76C528.112 59.5733 528.219 60.9067 528.432 61.76C528.699 62.6133 529.152 63.2267 529.792 63.6C530.485 63.92 531.552 64.08 532.992 64.08V66H514.912V64.08ZM593.086 62.8L581.246 67.28L579.566 65.92V59.36H579.246C578.18 61.8133 576.713 63.76 574.846 65.2C573.033 66.5867 570.873 67.28 568.366 67.28C565.86 67.28 563.673 66.4 561.806 64.64C559.94 62.88 558.5 60.4 557.486 57.2C556.473 54 555.966 50.2933 555.966 46.08C555.966 41.44 556.553 37.3067 557.726 33.68C558.953 30.0533 560.66 27.2267 562.846 25.2C565.086 23.1733 567.646 22.16 570.526 22.16C572.5 22.16 574.26 22.56 575.806 23.36C577.406 24.16 578.66 25.2533 579.566 26.64V11.68C579.566 9.70667 579.486 8.37333 579.326 7.68C579.22 6.98666 578.846 6.64 578.206 6.64C577.566 6.64 576.446 7.04 574.846 7.84L574.046 6.16L586.286 0.0799952L587.326 1.2V56.48C587.326 58.6133 587.406 60.0533 587.566 60.8C587.78 61.4933 588.286 61.84 589.086 61.84C589.673 61.84 590.766 61.5467 592.366 60.96L593.086 62.8ZM571.726 61.68C573.38 61.68 574.82 61.1467 576.046 60.08C577.273 58.96 578.446 57.3867 579.566 55.36V40.56C579.566 36.4 578.926 32.9867 577.646 30.32C576.42 27.6533 574.606 26.32 572.206 26.32C569.54 26.32 567.54 27.9733 566.206 31.28C564.873 34.5333 564.206 38.8267 564.206 44.16C564.206 49.4933 564.82 53.76 566.046 56.96C567.326 60.1067 569.22 61.68 571.726 61.68ZM608.351 67.28C605.205 67.28 602.298 66.32 599.631 64.4C599.258 64.08 598.885 63.92 598.511 63.92C598.138 63.92 597.791 64.2133 597.471 64.8L596.831 66.4H595.071L594.511 49.12H596.271C596.858 53.76 598.165 57.3867 600.191 60C602.271 62.6133 604.725 63.92 607.551 63.92C609.418 63.92 610.831 63.3333 611.791 62.16C612.805 60.9867 613.311 59.36 613.311 57.28C613.311 56.0533 613.071 55.0133 612.591 54.16C612.111 53.2533 611.285 52.2667 610.111 51.2C608.938 50.08 606.965 48.4 604.191 46.16C600.725 43.44 598.325 41.1467 596.991 39.28C595.711 37.4133 595.071 35.36 595.071 33.12C595.071 29.8667 596.111 27.2267 598.191 25.2C600.325 23.1733 602.991 22.16 606.191 22.16C609.018 22.16 611.525 23.0667 613.711 24.88C614.085 25.2533 614.458 25.44 614.831 25.44C615.311 25.44 615.631 25.12 615.791 24.48L616.271 22.72H618.111L618.431 36.72H616.671C616.191 33.4667 615.071 30.8 613.311 28.72C611.551 26.5867 609.391 25.52 606.831 25.52C605.231 25.52 603.951 26.0267 602.991 27.04C602.031 28 601.551 29.28 601.551 30.88C601.551 32.4267 602.058 33.7867 603.071 34.96C604.085 36.1333 606.138 37.9467 609.231 40.4C613.178 43.4933 615.925 46.08 617.471 48.16C619.071 50.24 619.871 52.72 619.871 55.6C619.871 59.3867 618.778 62.2933 616.591 64.32C614.405 66.2933 611.658 67.28 608.351 67.28Z" fill="#4D4D4D"/>
</svg>
